<?xml version="1.0" standalone="no"?>
<!DOCTYPE svg PUBLIC "-//W3C//DTD SVG 20010904//EN"
 "http://www.w3.org/TR/2001/REC-SVG-20010904/DTD/svg10.dtd">
<svg version="1.0" xmlns="http://www.w3.org/2000/svg"
 width="512.000000pt" height="512.000000pt" viewBox="0 0 512.000000 512.000000"
 preserveAspectRatio="xMidYMid meet">
<metadata>
Created by potrace 1.11, written by Peter Selinger 2001-2013
</metadata>
<g transform="translate(0.000000,512.000000) scale(0.100000,-0.100000)"
fill="#000000" stroke="none">
<path d="M2379 4846 c-2 -2 -34 -7 -71 -10 -184 -19 -423 -77 -593 -145 -87
-36 -327 -161 -403 -211 -344 -228 -618 -533 -797 -889 -125 -249 -193 -482
-233 -790 -9 -75 -9 -410 1 -486 17 -134 15 -121 38 -235 49 -248 179 -558
325 -778 125 -187 315 -396 479 -527 315 -251 722 -428 1105 -481 118 -16 168
-19 330 -19 339 1 557 43 870 167 314 125 657 375 881 643 19 22 36 42 39 45
3 3 33 43 66 90 164 229 276 463 348 723 31 110 39 147 52 227 2 14 6 34 8 45
28 131 28 521 1 690 -29 177 -67 316 -130 480 -208 542 -611 978 -1135 1233
-123 60 -315 134 -378 147 -9 2 -53 12 -97 23 -71 18 -116 26 -255 48 -40 6
-446 15 -451 10z m431 -311 c267 -45 433 -96 620 -187 120 -59 318 -185 390
-248 19 -17 61 -55 94 -83 86 -76 229 -245 308 -366 153 -231 276 -552 304
-793 3 -29 10 -73 14 -97 10 -56 10 -327 0 -406 -15 -116 -21 -151 -45 -251
-139 -584 -531 -1074 -1070 -1333 -157 -76 -361 -145 -490 -165 -16 -3 -61
-11 -100 -18 -108 -19 -467 -16 -585 6 -223 41 -379 90 -559 178 -410 198
-745 541 -941 962 -40 87 -114 294 -125 352 -47 246 -48 262 -49 449 -1 237 9
329 58 522 50 194 119 357 241 562 100 168 308 394 485 527 278 210 630 352
965 389 33 4 62 9 64 11 6 6 381 -4 421 -11z"/>
<path d="M1599 3476 c-2 -2 -22 -6 -44 -9 -144 -21 -329 -118 -440 -232 -113
-115 -200 -275 -236 -433 -38 -170 -29 -398 21 -552 48 -143 135 -285 231
-375 287 -270 706 -304 1030 -84 83 56 227 200 318 319 40 52 77 95 81 95 5 0
34 -34 64 -75 237 -321 493 -480 776 -481 159 -1 261 22 394 87 198 98 350
282 426 516 94 293 41 648 -133 887 -121 168 -324 296 -520 329 -81 14 -288 7
-352 -12 -101 -29 -199 -77 -285 -139 -101 -74 -293 -284 -359 -394 -10 -16
-12 -16 -21 -2 -11 18 -105 141 -141 184 -30 36 -147 153 -180 180 -87 72
-220 143 -324 171 -53 14 -295 30 -306 20z m191 -400 c83 -10 184 -70 279
-165 98 -98 93 -92 194 -238 l76 -109 -51 -75 c-183 -267 -306 -384 -448 -426
-120 -36 -282 -12 -390 57 -132 85 -197 216 -206 416 -11 268 103 453 321 524
39 13 150 28 170 24 6 -2 30 -5 55 -8z m1727 -7 c177 -35 306 -174 349 -374
12 -54 11 -187 -1 -256 -35 -204 -164 -343 -355 -383 -181 -37 -322 14 -480
174 -59 60 -172 209 -227 300 l-22 35 57 85 c31 47 59 87 62 90 3 3 22 28 43
56 52 73 173 185 242 224 109 62 200 76 332 49z"/>
</g>
</svg>
