<?xml version="1.0" standalone="no"?>
<!DOCTYPE svg PUBLIC "-//W3C//DTD SVG 20010904//EN"
 "http://www.w3.org/TR/2001/REC-SVG-20010904/DTD/svg10.dtd">
<svg version="1.0" xmlns="http://www.w3.org/2000/svg"
 width="2048.000000pt" height="2048.000000pt" viewBox="0 0 2048.000000 2048.000000"
 preserveAspectRatio="xMidYMid meet">
<metadata>
Created by potrace 1.11, written by Peter Selinger 2001-2013
</metadata>
<g transform="translate(0.000000,2048.000000) scale(0.100000,-0.100000)"
fill="#000000" stroke="none">
<path d="M9899 19336 c-2 -2 -67 -6 -144 -10 -77 -4 -162 -8 -190 -11 -27 -2
-84 -7 -125 -10 -41 -4 -93 -8 -115 -11 -47 -5 -110 -12 -180 -19 -27 -3 -59
-7 -70 -9 -11 -2 -47 -7 -80 -11 -33 -3 -114 -15 -180 -26 -66 -11 -133 -22
-150 -25 -16 -2 -77 -14 -135 -25 -58 -12 -116 -23 -130 -25 -84 -14 -452
-104 -619 -150 -318 -89 -876 -283 -1076 -374 -103 -47 -177 -80 -180 -80 -9
0 -178 -81 -355 -169 -326 -164 -520 -274 -825 -468 -178 -113 -213 -137 -410
-277 -110 -78 -384 -287 -461 -353 -27 -22 -80 -67 -119 -99 -38 -32 -72 -61
-75 -64 -3 -3 -23 -20 -45 -39 -250 -213 -651 -619 -913 -924 -54 -62 -110
-130 -127 -151 -16 -22 -35 -44 -40 -50 -61 -67 -317 -410 -437 -586 -86 -125
-298 -457 -298 -465 0 -3 -15 -28 -33 -57 -133 -208 -381 -699 -524 -1033
-202 -473 -427 -1161 -498 -1525 -2 -8 -8 -33 -14 -55 -11 -43 -37 -168 -46
-225 -3 -19 -8 -42 -10 -50 -2 -8 -6 -27 -9 -43 -3 -15 -10 -55 -16 -90 -7
-34 -13 -71 -15 -82 -1 -11 -5 -33 -8 -50 -3 -16 -9 -52 -12 -80 -3 -27 -8
-57 -10 -65 -3 -8 -7 -35 -9 -60 -3 -25 -7 -58 -10 -75 -6 -42 -14 -108 -21
-190 -4 -38 -8 -77 -10 -85 -2 -8 -7 -55 -11 -105 -3 -49 -8 -106 -9 -125 -27
-322 -27 -1048 0 -1355 2 -27 6 -79 9 -115 3 -36 8 -90 11 -120 4 -53 13 -128
20 -180 2 -14 7 -50 10 -80 3 -30 10 -82 15 -115 5 -33 12 -78 15 -100 12 -79
25 -160 30 -185 3 -14 10 -52 15 -85 6 -33 25 -125 41 -205 35 -167 32 -154
54 -245 9 -38 18 -79 21 -90 6 -32 75 -285 96 -355 124 -417 259 -785 425
-1160 69 -156 270 -561 322 -648 17 -29 31 -55 31 -57 0 -17 272 -464 393
-644 87 -130 316 -450 337 -471 3 -3 27 -34 55 -70 45 -59 282 -348 295 -360
3 -3 23 -25 44 -50 166 -190 492 -524 691 -706 184 -169 483 -419 640 -535 33
-24 62 -46 65 -49 4 -5 117 -87 185 -134 11 -8 54 -39 96 -69 43 -30 81 -56
85 -58 5 -2 63 -40 129 -83 103 -68 441 -276 449 -276 1 0 52 -28 112 -61 105
-59 577 -299 588 -299 3 0 33 -13 68 -29 398 -183 932 -374 1358 -487 66 -17
420 -104 440 -108 14 -2 70 -13 125 -25 55 -11 113 -22 129 -25 16 -3 52 -10
80 -15 28 -6 69 -13 91 -16 22 -3 65 -10 95 -15 69 -11 123 -19 175 -26 22 -2
74 -9 115 -14 109 -14 243 -28 335 -35 44 -4 95 -8 113 -10 219 -26 1090 -26
1367 0 22 2 69 6 105 9 36 3 90 8 120 11 95 9 333 38 410 50 14 2 43 6 65 10
23 3 52 7 65 10 13 3 40 7 60 10 20 3 47 8 60 10 14 3 64 12 111 20 47 8 128
24 180 35 52 12 114 25 139 30 65 13 490 123 595 154 407 122 894 307 1269
483 114 54 384 190 455 230 25 14 75 41 111 61 36 19 82 46 102 59 21 13 39
23 41 23 10 0 291 175 457 285 158 105 484 336 500 355 3 3 20 16 38 29 47 33
299 239 386 316 6 6 47 42 91 80 132 117 212 192 395 375 154 154 229 233 354
370 35 38 191 221 222 259 10 13 24 28 29 35 48 53 244 309 366 476 52 71 238
349 305 455 64 101 174 286 174 292 0 4 6 14 14 22 7 9 31 50 53 91 22 41 63
116 90 165 255 470 526 1132 688 1680 89 302 202 777 231 975 3 19 7 42 9 50
5 18 52 323 60 395 3 28 10 84 15 125 12 100 19 171 26 255 3 39 7 90 9 115
27 349 28 1006 0 1355 -1 22 -6 78 -9 125 -4 47 -9 99 -11 115 -2 17 -7 57
-10 90 -3 33 -8 74 -10 90 -2 17 -7 53 -10 80 -5 43 -13 99 -31 220 -3 17 -7
37 -9 45 -2 8 -6 37 -10 63 -3 26 -10 71 -16 100 -5 29 -12 66 -14 82 -6 37
-13 71 -19 93 -3 9 -7 34 -11 56 -3 21 -7 42 -10 46 -3 4 -7 25 -11 46 -5 40
-89 384 -123 509 -103 375 -286 892 -427 1203 -13 29 -24 54 -24 56 0 7 -88
193 -161 341 -239 486 -543 981 -872 1420 -63 84 -198 256 -207 265 -3 3 -18
22 -33 43 -16 21 -36 45 -46 55 -10 9 -40 44 -67 77 -48 59 -72 86 -164 189
-216 242 -571 592 -810 798 -95 82 -342 284 -395 323 -22 16 -42 32 -45 35
-16 19 -304 224 -470 335 -418 280 -837 514 -1296 722 -183 83 -512 219 -638
263 -520 182 -941 299 -1346 376 -127 24 -198 37 -215 40 -11 1 -65 10 -120
19 -55 9 -111 18 -125 20 -28 4 -160 21 -235 30 -27 4 -61 8 -75 10 -14 2 -59
7 -100 10 -41 3 -90 8 -108 10 -18 2 -79 7 -135 11 -56 3 -118 8 -137 10 -41
6 -866 15 -871 10z m861 -310 c30 -2 102 -7 159 -11 58 -4 114 -9 125 -11 11
-2 50 -6 86 -9 36 -4 81 -8 100 -10 19 -2 60 -7 90 -10 30 -3 83 -10 118 -16
34 -5 82 -12 106 -15 24 -2 54 -7 67 -9 13 -3 39 -7 59 -10 20 -3 47 -7 60
-10 14 -3 52 -10 85 -16 33 -5 116 -22 185 -36 69 -14 143 -29 165 -33 310
-63 892 -241 1285 -393 285 -111 708 -307 960 -444 30 -17 82 -45 115 -63 379
-207 1002 -631 1286 -874 19 -17 55 -47 79 -66 23 -19 48 -39 54 -45 6 -5 31
-28 56 -49 359 -312 702 -661 995 -1011 55 -66 132 -160 170 -210 38 -49 72
-92 75 -95 3 -3 30 -39 60 -80 30 -41 58 -79 63 -85 79 -99 391 -573 461 -700
16 -27 32 -54 36 -60 4 -5 19 -30 32 -55 14 -25 37 -65 50 -90 265 -475 500
-1010 668 -1525 53 -165 136 -439 145 -485 2 -8 13 -51 24 -95 26 -98 71 -290
76 -327 2 -15 8 -44 14 -65 9 -35 48 -240 58 -308 2 -16 10 -68 18 -115 8 -47
17 -105 20 -130 2 -25 7 -61 10 -80 9 -62 24 -192 30 -260 5 -65 16 -175 20
-215 13 -122 20 -361 20 -685 -1 -318 -5 -462 -20 -650 -2 -25 -6 -83 -10
-130 -3 -47 -8 -96 -10 -110 -2 -14 -7 -52 -10 -85 -3 -33 -8 -71 -10 -85 -2
-14 -6 -52 -10 -85 -4 -32 -8 -66 -10 -75 -3 -16 -16 -103 -20 -135 -2 -11 -6
-33 -8 -50 -3 -16 -8 -46 -11 -65 -3 -19 -10 -60 -16 -90 -6 -30 -13 -71 -16
-90 -3 -19 -9 -51 -14 -70 -5 -19 -11 -53 -15 -75 -3 -22 -10 -58 -16 -80 -6
-22 -13 -47 -14 -55 -63 -304 -199 -764 -333 -1126 -47 -127 -150 -380 -173
-427 -12 -23 -22 -44 -21 -47 0 -3 -17 -43 -39 -89 -21 -46 -39 -86 -39 -88 0
-6 -181 -368 -225 -448 -78 -144 -101 -184 -203 -355 -159 -266 -334 -527
-505 -755 -64 -85 -195 -252 -212 -271 -5 -6 -22 -26 -37 -45 -14 -19 -36 -45
-48 -59 -12 -14 -42 -50 -68 -80 -26 -30 -65 -75 -87 -100 -22 -24 -44 -50
-50 -56 -134 -152 -384 -405 -561 -569 -71 -65 -131 -122 -134 -125 -13 -14
-334 -283 -415 -346 -191 -150 -346 -262 -561 -405 -203 -136 -535 -339 -554
-339 -5 0 -10 -4 -10 -8 0 -4 -12 -13 -27 -19 -16 -6 -57 -28 -93 -48 -187
-106 -561 -285 -825 -395 -222 -92 -678 -257 -759 -275 -6 -1 -18 -5 -26 -8
-48 -20 -550 -154 -605 -162 -11 -2 -60 -13 -109 -25 -50 -11 -106 -23 -125
-26 -20 -3 -44 -7 -53 -10 -20 -6 -14 -5 -208 -38 -80 -14 -165 -27 -190 -30
-25 -3 -54 -8 -65 -10 -11 -2 -49 -7 -85 -11 -36 -4 -74 -9 -85 -11 -11 -3
-48 -7 -81 -10 -34 -2 -71 -6 -82 -9 -12 -2 -61 -7 -109 -10 -48 -4 -106 -9
-128 -11 -236 -20 -898 -26 -1145 -11 -249 15 -412 29 -511 42 -20 3 -56 8
-79 10 -24 3 -80 10 -124 16 -45 6 -90 12 -101 14 -11 1 -40 5 -65 9 -25 4
-58 10 -75 12 -33 5 -126 21 -165 29 -14 3 -41 8 -60 11 -88 16 -368 78 -495
110 -77 20 -144 37 -150 38 -5 2 -17 5 -25 8 -8 3 -53 16 -100 28 -93 25 -603
192 -654 214 -42 18 -150 61 -156 61 -3 0 -52 20 -110 44 -761 319 -1457 724
-2070 1206 -123 96 -128 100 -205 165 -27 23 -61 51 -75 63 -175 144 -586 536
-757 723 -130 142 -191 211 -248 280 -22 26 -45 52 -50 58 -6 6 -28 34 -50 61
-22 28 -42 52 -45 55 -3 3 -21 25 -40 50 -19 25 -37 47 -40 50 -40 33 -459
627 -526 745 -6 11 -47 79 -91 150 -145 236 -325 573 -441 825 -16 36 -42 92
-57 125 -156 339 -356 897 -455 1270 -45 169 -105 416 -115 475 -3 19 -12 64
-20 100 -8 36 -16 76 -19 90 -2 14 -13 77 -24 140 -12 63 -24 137 -27 164 -3
27 -8 52 -10 55 -1 3 -6 33 -9 66 -4 33 -8 67 -11 75 -2 8 -7 44 -10 80 -3 36
-8 76 -9 90 -2 14 -7 57 -10 95 -4 39 -9 88 -11 110 -22 201 -30 416 -29 785
0 316 6 530 19 660 2 19 6 78 10 130 4 52 8 101 10 110 1 8 6 47 10 85 4 39 8
77 10 85 1 8 6 42 9 75 4 33 13 101 21 150 7 50 16 106 19 125 5 30 23 135 41
235 3 17 8 37 10 45 3 8 7 33 10 55 4 22 8 48 11 57 3 10 7 30 10 45 23 134
175 699 234 868 11 33 22 67 24 75 7 28 97 274 148 405 47 122 61 154 93 230
325 762 724 1427 1249 2084 82 102 152 188 155 191 3 3 35 39 71 80 278 322
668 702 1010 986 943 783 2038 1362 3205 1695 77 22 147 42 155 44 8 2 96 24
195 48 99 25 194 47 210 50 17 3 53 10 80 16 28 6 61 13 75 15 14 3 34 7 45 9
22 5 102 19 125 22 19 3 139 24 165 29 11 2 47 7 80 11 32 3 62 8 65 10 3 2
35 6 70 9 36 3 74 8 85 10 11 2 54 7 95 11 41 4 82 9 90 10 8 1 56 6 105 10
50 4 108 9 130 11 22 2 101 6 175 10 74 3 137 8 138 9 5 5 794 -4 862 -9z"/>
<path d="M6758 13925 c-1 -2 -68 -6 -147 -10 -80 -3 -147 -8 -150 -10 -3 -1
-40 -6 -81 -10 -145 -13 -397 -70 -585 -131 -246 -80 -504 -200 -695 -323 -36
-23 -73 -44 -82 -47 -10 -4 -18 -10 -18 -15 0 -5 -5 -9 -11 -9 -15 0 -261
-186 -360 -273 -343 -300 -620 -665 -825 -1086 -57 -117 -159 -358 -169 -401
-2 -8 -13 -42 -24 -74 -26 -73 -86 -291 -100 -366 -6 -30 -14 -66 -16 -80 -13
-59 -25 -128 -30 -165 -2 -22 -7 -58 -10 -80 -5 -37 -10 -82 -20 -180 -25
-251 -20 -702 10 -925 2 -19 7 -55 10 -80 3 -25 10 -70 15 -100 5 -30 12 -73
15 -95 24 -164 112 -478 191 -679 48 -121 208 -460 247 -521 6 -10 43 -69 82
-130 75 -118 187 -275 244 -341 20 -22 55 -62 77 -90 64 -76 247 -257 343
-338 388 -328 818 -551 1316 -681 121 -31 164 -41 240 -51 16 -2 37 -6 45 -9
8 -2 41 -7 73 -10 32 -4 68 -8 80 -11 114 -23 579 -22 762 1 17 2 55 7 85 10
30 4 57 8 60 10 3 1 28 6 55 10 157 21 428 100 660 194 41 17 332 162 375 187
219 128 427 282 649 479 84 74 378 370 446 449 33 38 65 74 70 80 30 32 288
352 347 431 87 115 130 173 212 287 l99 137 91 -132 c166 -240 455 -616 571
-743 5 -6 44 -49 85 -95 177 -199 450 -453 660 -615 475 -367 1022 -607 1535
-674 50 -6 101 -14 115 -16 139 -23 579 -22 760 1 19 2 58 7 85 10 343 42 720
162 1065 339 63 32 127 67 142 77 14 11 28 19 31 19 3 0 60 36 125 79 550 365
979 894 1260 1556 78 183 184 516 208 655 2 14 11 61 19 105 15 80 28 165 40
260 4 28 8 61 10 73 24 150 25 810 1 939 -2 10 -7 45 -10 78 -14 126 -50 328
-81 455 -9 36 -17 72 -19 80 -21 88 -84 282 -129 395 -131 332 -277 595 -482
870 -315 422 -707 748 -1185 985 -74 37 -146 71 -160 75 -14 4 -30 11 -35 15
-11 9 -48 23 -200 76 -170 59 -423 121 -564 139 -30 4 -62 8 -72 10 -17 4
-106 12 -219 20 -74 6 -362 6 -425 0 -27 -2 -81 -7 -120 -10 -65 -6 -173 -19
-237 -30 -16 -3 -43 -8 -60 -11 -309 -53 -702 -206 -1033 -402 -428 -254 -911
-694 -1280 -1166 -16 -21 -35 -44 -42 -51 -26 -27 -293 -386 -352 -475 -35
-52 -72 -106 -82 -118 l-18 -24 -33 47 c-171 244 -328 451 -545 711 -524 631
-1016 1025 -1598 1281 -110 48 -320 122 -420 148 -16 5 -34 9 -40 11 -53 14
-269 54 -340 63 -49 7 -106 14 -125 16 -19 3 -107 8 -195 11 -88 3 -165 7
-172 9 -6 2 -13 2 -15 0z m407 -1619 c313 -58 617 -214 942 -483 116 -96 344
-327 457 -463 43 -52 86 -105 96 -117 24 -28 186 -245 225 -301 113 -161 168
-240 182 -262 9 -14 28 -42 42 -63 31 -46 40 -58 115 -173 32 -49 72 -108 87
-132 16 -24 29 -51 29 -60 0 -9 -88 -147 -195 -307 -258 -382 -284 -419 -295
-423 -6 -2 -10 -8 -10 -13 0 -14 -163 -228 -283 -371 -95 -115 -335 -364 -437
-453 -259 -229 -632 -426 -895 -474 -33 -6 -71 -13 -85 -16 -92 -18 -315 -24
-460 -12 -513 44 -948 262 -1265 632 -164 192 -337 559 -391 830 -10 50 -27
143 -30 168 -2 15 -6 42 -9 60 -27 180 -25 578 5 792 12 87 13 95 29 170 6 28
13 61 15 75 10 46 57 194 87 271 65 166 196 395 287 502 117 137 284 282 437
377 209 130 510 230 770 256 27 3 51 7 54 9 11 12 414 -3 496 -19z m6735 9
c221 -32 415 -92 605 -186 280 -138 499 -333 668 -595 143 -221 269 -559 301
-807 3 -17 7 -45 10 -62 14 -86 20 -192 20 -400 1 -276 -7 -375 -45 -570 -26
-131 -82 -320 -119 -400 -144 -317 -261 -488 -449 -659 -19 -17 -43 -39 -53
-48 -35 -34 -204 -146 -289 -192 -166 -89 -398 -167 -574 -191 -11 -2 -33 -6
-50 -9 -51 -10 -195 -20 -300 -20 -431 0 -795 137 -1195 453 -119 94 -367 337
-485 476 -49 59 -98 116 -109 128 -10 12 -50 65 -90 117 -39 52 -75 100 -79
105 -60 73 -537 780 -537 796 0 12 27 54 160 254 474 714 723 1013 1120 1349
68 57 179 133 355 243 53 34 236 118 312 144 197 68 336 88 588 84 105 -2 210
-6 235 -10z"/>
</g>
</svg>
