<svg xmlns="http://www.w3.org/2000/svg" width="56.563" height="56.563" viewBox="0 0 56.563 56.563">
  <path id="_" data-name="icon-add" class="icon-add" d="M379.345,78.977a3.722,3.722,0,0,0-2.732-1.125H359.9V61.137a3.841,3.841,0,0,0-3.857-3.857h-7.714a3.841,3.841,0,0,0-3.857,3.857V77.852H327.756a3.841,3.841,0,0,0-3.858,3.857v7.714a3.841,3.841,0,0,0,3.858,3.857H344.47v16.714a3.841,3.841,0,0,0,3.857,3.858h7.714a3.841,3.841,0,0,0,3.857-3.858V93.28h16.715a3.841,3.841,0,0,0,3.857-3.857V81.709A3.724,3.724,0,0,0,379.345,78.977Z" transform="translate(-323.906 -57.281)"/>
</svg>
