<svg xmlns="http://www.w3.org/2000/svg" width="61.719" height="61.719" viewBox="0 0 61.719 61.719">
  <path id="_" data-name="icon-reset" class="icon-reset" d="M286.227,90.662a1.239,1.239,0,0,0-.9-0.382h-7.715a1.205,1.205,0,0,0-1.2.924,48.431,48.431,0,0,1-2.13,4.7,20.494,20.494,0,0,1-17.517,9.8,20.037,20.037,0,0,1-7.514-1.447,20.72,20.72,0,0,1-6.469-4.1l5.5-5.5a2.572,2.572,0,0,0-1.808-4.379h-18a2.608,2.608,0,0,0-2.572,2.572v18a2.558,2.558,0,0,0,4.38,1.808l5.183-5.183a30.686,30.686,0,0,0,9.783,6.308,30.128,30.128,0,0,0,11.351,2.209,29.453,29.453,0,0,0,19.2-6.689,31.218,31.218,0,0,0,10.768-17.458,0.7,0.7,0,0,0,.04-0.281A1.238,1.238,0,0,0,286.227,90.662Zm0.622-33.047a2.523,2.523,0,0,0-3.616,0L278.01,62.8a31.127,31.127,0,0,0-9.844-6.288,30.315,30.315,0,0,0-11.41-2.23,29.669,29.669,0,0,0-19.286,6.69,31.342,31.342,0,0,0-10.848,17.458v0.281a1.3,1.3,0,0,0,1.285,1.286h8a1.2,1.2,0,0,0,1.205-.924,48.611,48.611,0,0,1,2.13-4.7,20.493,20.493,0,0,1,17.518-9.8,19.964,19.964,0,0,1,14.022,5.5l-5.545,5.545a2.571,2.571,0,0,0,1.808,4.379h18a2.608,2.608,0,0,0,2.572-2.571v-18A2.472,2.472,0,0,0,286.849,57.615Z" transform="translate(-225.906 -54.281)"/>
</svg>
